<svg xmlns="http://www.w3.org/2000/svg" xmlns:xlink="http://www.w3.org/1999/xlink" width="250" zoomAndPan="magnify" viewBox="0 0 187.5 37.5" height="50" preserveAspectRatio="xMidYMid meet" version="1.0"><defs><g/><clipPath id="b8c9d9810b"><path d="M 136.265625 20 L 178 20 L 178 29 L 136.265625 29 Z M 136.265625 20 " clip-rule="nonzero"/></clipPath><clipPath id="90f3a104ed"><path d="M 164 23 L 182.152344 23 L 182.152344 27 L 164 27 Z M 164 23 " clip-rule="nonzero"/></clipPath><clipPath id="feca645b67"><path d="M 144 5.054688 L 182 5.054688 L 182 24 L 144 24 Z M 144 5.054688 " clip-rule="nonzero"/></clipPath></defs><g clip-path="url(#b8c9d9810b)"><path fill="#29abe2" d="M 136.265625 20.800781 C 136.265625 20.800781 144.699219 27.386719 158.382812 22.710938 C 172.0625 18.03125 177.59375 22.710938 177.59375 22.710938 C 174.6875 21.730469 169.441406 22.246094 160.546875 26.234375 C 151.65625 30.222656 143.675781 26.347656 143.675781 26.347656 C 148.691406 27.851562 153.421875 26.347656 153.421875 26.347656 C 141.109375 28.078125 136.265625 20.800781 136.265625 20.800781 Z M 136.265625 20.800781 " fill-opacity="1" fill-rule="nonzero"/></g><g clip-path="url(#90f3a104ed)"><path fill="#1a7eaa" d="M 180.421875 23.882812 C 180.421875 23.882812 178.390625 23.734375 177.363281 23.90625 C 177.363281 23.90625 179.898438 24.238281 182.152344 26.75 C 182.152344 26.75 174.742188 21.550781 164.140625 25.882812 C 164.140625 25.886719 171.300781 21.109375 180.421875 23.882812 Z M 180.421875 23.882812 " fill-opacity="1" fill-rule="nonzero"/></g><g clip-path="url(#feca645b67)"><path fill="#1a7eaa" d="M 181.144531 14.101562 C 180.632812 14.121094 179.984375 15.332031 176.792969 12.890625 C 176.792969 12.890625 177.226562 13.929688 178.253906 14.351562 C 179.28125 14.777344 177.492188 14.96875 176.105469 14.066406 C 174.71875 13.160156 174.566406 13.277344 173.484375 11.695312 C 172.402344 10.117188 167.1875 11.59375 163.28125 10.0625 C 163.28125 10.0625 161.257812 13.84375 160.03125 14.882812 C 158.808594 15.921875 159.089844 19.851562 159.089844 19.851562 C 159.089844 19.851562 159.40625 20.140625 160.289062 18.378906 C 161.171875 16.617188 163.023438 15.289062 165.273438 14.914062 C 167.261719 14.582031 169.871094 17.113281 167.859375 20.097656 C 165.222656 20.265625 162.019531 20.855469 158.195312 22.164062 C 152.535156 24.101562 147.777344 24.054688 144.183594 23.363281 C 145.582031 22.945312 147.304688 22.101562 148.914062 20.421875 C 152.410156 16.761719 154.5 16.339844 156.402344 12.257812 C 158.300781 8.175781 159.820312 7.289062 161 6.175781 C 162.179688 5.054688 164.191406 6.058594 167.382812 6.90625 C 170.578125 7.753906 174.414062 9.3125 176.351562 9.660156 C 178.289062 10.007812 181.65625 14.082031 181.144531 14.101562 Z M 181.144531 14.101562 " fill-opacity="1" fill-rule="nonzero"/></g><g fill="#000000" fill-opacity="1"><g transform="translate(0.926419, 23.460235)"><g><path d="M 4.46875 0.15625 C 3.6875 0.15625 2.910156 0.0664062 2.140625 -0.109375 C 1.378906 -0.285156 0.769531 -0.519531 0.3125 -0.8125 L 1.296875 -3.0625 C 1.722656 -2.800781 2.226562 -2.59375 2.8125 -2.4375 C 3.40625 -2.28125 3.992188 -2.203125 4.578125 -2.203125 C 5.109375 -2.203125 5.484375 -2.253906 5.703125 -2.359375 C 5.929688 -2.472656 6.046875 -2.632812 6.046875 -2.84375 C 6.046875 -3.050781 5.910156 -3.195312 5.640625 -3.28125 C 5.367188 -3.363281 4.9375 -3.445312 4.34375 -3.53125 C 3.59375 -3.625 2.953125 -3.742188 2.421875 -3.890625 C 1.898438 -4.046875 1.445312 -4.328125 1.0625 -4.734375 C 0.6875 -5.140625 0.5 -5.703125 0.5 -6.421875 C 0.5 -7.023438 0.675781 -7.5625 1.03125 -8.03125 C 1.394531 -8.5 1.921875 -8.867188 2.609375 -9.140625 C 3.296875 -9.410156 4.117188 -9.546875 5.078125 -9.546875 C 5.753906 -9.546875 6.425781 -9.472656 7.09375 -9.328125 C 7.769531 -9.191406 8.332031 -9 8.78125 -8.75 L 7.796875 -6.515625 C 6.960938 -6.972656 6.0625 -7.203125 5.09375 -7.203125 C 4.570312 -7.203125 4.191406 -7.140625 3.953125 -7.015625 C 3.710938 -6.898438 3.59375 -6.742188 3.59375 -6.546875 C 3.59375 -6.328125 3.722656 -6.171875 3.984375 -6.078125 C 4.253906 -5.992188 4.691406 -5.910156 5.296875 -5.828125 C 6.078125 -5.710938 6.71875 -5.578125 7.21875 -5.421875 C 7.726562 -5.273438 8.171875 -5 8.546875 -4.59375 C 8.921875 -4.195312 9.109375 -3.640625 9.109375 -2.921875 C 9.109375 -2.335938 8.929688 -1.8125 8.578125 -1.34375 C 8.222656 -0.875 7.691406 -0.503906 6.984375 -0.234375 C 6.285156 0.0234375 5.445312 0.15625 4.46875 0.15625 Z M 4.46875 0.15625 "/></g></g></g><g fill="#000000" fill-opacity="1"><g transform="translate(8.632716, 23.460235)"><g><path d="M 16.625 -9.390625 L 13.265625 0 L 10.078125 0 L 8.3125 -5.109375 L 6.484375 0 L 3.296875 0 L -0.046875 -9.390625 L 3.0625 -9.390625 L 4.984375 -3.703125 L 6.984375 -9.390625 L 9.796875 -9.390625 L 11.734375 -3.65625 L 13.71875 -9.390625 Z M 16.625 -9.390625 "/></g></g></g><g fill="#000000" fill-opacity="1"><g transform="translate(23.422543, 23.460235)"><g><path d="M 1.0625 -9.390625 L 4.34375 -9.390625 L 4.34375 0 L 1.0625 0 Z M 2.703125 -10.4375 C 2.109375 -10.4375 1.625 -10.601562 1.25 -10.9375 C 0.882812 -11.269531 0.703125 -11.6875 0.703125 -12.1875 C 0.703125 -12.675781 0.882812 -13.085938 1.25 -13.421875 C 1.625 -13.765625 2.109375 -13.9375 2.703125 -13.9375 C 3.304688 -13.9375 3.789062 -13.773438 4.15625 -13.453125 C 4.53125 -13.140625 4.71875 -12.734375 4.71875 -12.234375 C 4.71875 -11.710938 4.53125 -11.28125 4.15625 -10.9375 C 3.789062 -10.601562 3.304688 -10.4375 2.703125 -10.4375 Z M 2.703125 -10.4375 "/></g></g></g><g fill="#000000" fill-opacity="1"><g transform="translate(27.076155, 23.460235)"><g><path d="M 13.296875 -9.546875 C 14.441406 -9.546875 15.359375 -9.195312 16.046875 -8.5 C 16.734375 -7.8125 17.078125 -6.769531 17.078125 -5.375 L 17.078125 0 L 13.796875 0 L 13.796875 -4.828125 C 13.796875 -5.492188 13.671875 -5.984375 13.421875 -6.296875 C 13.171875 -6.609375 12.820312 -6.765625 12.375 -6.765625 C 11.875 -6.765625 11.472656 -6.585938 11.171875 -6.234375 C 10.867188 -5.890625 10.71875 -5.363281 10.71875 -4.65625 L 10.71875 0 L 7.4375 0 L 7.4375 -4.828125 C 7.4375 -6.117188 6.960938 -6.765625 6.015625 -6.765625 C 5.503906 -6.765625 5.097656 -6.585938 4.796875 -6.234375 C 4.492188 -5.890625 4.34375 -5.363281 4.34375 -4.65625 L 4.34375 0 L 1.0625 0 L 1.0625 -9.390625 L 4.1875 -9.390625 L 4.1875 -8.40625 C 4.539062 -8.78125 4.957031 -9.0625 5.4375 -9.25 C 5.914062 -9.445312 6.4375 -9.546875 7 -9.546875 C 7.65625 -9.546875 8.242188 -9.421875 8.765625 -9.171875 C 9.285156 -8.929688 9.707031 -8.566406 10.03125 -8.078125 C 10.40625 -8.546875 10.875 -8.90625 11.4375 -9.15625 C 12 -9.414062 12.617188 -9.546875 13.296875 -9.546875 Z M 13.296875 -9.546875 "/></g></g></g><g fill="#000000" fill-opacity="1"><g transform="translate(43.407387, 23.460235)"><g><path d="M 10.53125 -6.328125 C 11.226562 -6.078125 11.769531 -5.695312 12.15625 -5.1875 C 12.550781 -4.675781 12.75 -4.054688 12.75 -3.328125 C 12.75 -2.265625 12.320312 -1.441406 11.46875 -0.859375 C 10.613281 -0.285156 9.378906 0 7.765625 0 L 1.21875 0 L 1.21875 -12.125 L 7.421875 -12.125 C 8.960938 -12.125 10.140625 -11.835938 10.953125 -11.265625 C 11.765625 -10.703125 12.171875 -9.929688 12.171875 -8.953125 C 12.171875 -8.378906 12.023438 -7.863281 11.734375 -7.40625 C 11.453125 -6.945312 11.050781 -6.585938 10.53125 -6.328125 Z M 4.609375 -9.65625 L 4.609375 -7.3125 L 6.96875 -7.3125 C 8.125 -7.3125 8.703125 -7.703125 8.703125 -8.484375 C 8.703125 -9.265625 8.125 -9.65625 6.96875 -9.65625 Z M 7.484375 -2.484375 C 8.679688 -2.484375 9.28125 -2.890625 9.28125 -3.703125 C 9.28125 -4.523438 8.679688 -4.9375 7.484375 -4.9375 L 4.609375 -4.9375 L 4.609375 -2.484375 Z M 7.484375 -2.484375 "/></g></g></g><g fill="#000000" fill-opacity="1"><g transform="translate(54.958534, 23.460235)"><g><path d="M 10.65625 -4.671875 C 10.65625 -4.648438 10.640625 -4.378906 10.609375 -3.859375 L 3.78125 -3.859375 C 3.914062 -3.378906 4.179688 -3.007812 4.578125 -2.75 C 4.984375 -2.488281 5.484375 -2.359375 6.078125 -2.359375 C 6.535156 -2.359375 6.925781 -2.421875 7.25 -2.546875 C 7.582031 -2.671875 7.914062 -2.878906 8.25 -3.171875 L 9.984375 -1.375 C 9.066406 -0.351562 7.734375 0.15625 5.984375 0.15625 C 4.878906 0.15625 3.910156 -0.0507812 3.078125 -0.46875 C 2.253906 -0.882812 1.613281 -1.460938 1.15625 -2.203125 C 0.695312 -2.941406 0.46875 -3.78125 0.46875 -4.71875 C 0.46875 -5.632812 0.6875 -6.457031 1.125 -7.1875 C 1.570312 -7.925781 2.1875 -8.503906 2.96875 -8.921875 C 3.757812 -9.335938 4.644531 -9.546875 5.625 -9.546875 C 6.5625 -9.546875 7.410156 -9.351562 8.171875 -8.96875 C 8.941406 -8.582031 9.546875 -8.019531 9.984375 -7.28125 C 10.429688 -6.550781 10.65625 -5.679688 10.65625 -4.671875 Z M 5.65625 -7.203125 C 5.144531 -7.203125 4.71875 -7.054688 4.375 -6.765625 C 4.03125 -6.484375 3.8125 -6.09375 3.71875 -5.59375 L 7.578125 -5.59375 C 7.484375 -6.09375 7.265625 -6.484375 6.921875 -6.765625 C 6.578125 -7.054688 6.15625 -7.203125 5.65625 -7.203125 Z M 5.65625 -7.203125 "/></g></g></g><g fill="#000000" fill-opacity="1"><g transform="translate(64.31015, 23.460235)"><g><path d="M 7.171875 -9.546875 C 8.335938 -9.546875 9.273438 -9.195312 9.984375 -8.5 C 10.703125 -7.8125 11.0625 -6.769531 11.0625 -5.375 L 11.0625 0 L 7.765625 0 L 7.765625 -4.828125 C 7.765625 -6.117188 7.25 -6.765625 6.21875 -6.765625 C 5.65625 -6.765625 5.203125 -6.578125 4.859375 -6.203125 C 4.515625 -5.835938 4.34375 -5.285156 4.34375 -4.546875 L 4.34375 0 L 1.0625 0 L 1.0625 -9.390625 L 4.1875 -9.390625 L 4.1875 -8.375 C 4.5625 -8.75 5 -9.035156 5.5 -9.234375 C 6.007812 -9.441406 6.566406 -9.546875 7.171875 -9.546875 Z M 7.171875 -9.546875 "/></g></g></g><g fill="#000000" fill-opacity="1"><g transform="translate(74.596997, 23.460235)"><g><path d="M 5.859375 0.15625 C 4.816406 0.15625 3.882812 -0.0507812 3.0625 -0.46875 C 2.25 -0.882812 1.613281 -1.460938 1.15625 -2.203125 C 0.695312 -2.941406 0.46875 -3.78125 0.46875 -4.71875 C 0.46875 -5.644531 0.695312 -6.472656 1.15625 -7.203125 C 1.613281 -7.941406 2.25 -8.515625 3.0625 -8.921875 C 3.882812 -9.335938 4.816406 -9.546875 5.859375 -9.546875 C 6.921875 -9.546875 7.835938 -9.316406 8.609375 -8.859375 C 9.378906 -8.398438 9.929688 -7.769531 10.265625 -6.96875 L 7.71875 -5.671875 C 7.28125 -6.515625 6.65625 -6.9375 5.84375 -6.9375 C 5.25 -6.9375 4.757812 -6.738281 4.375 -6.34375 C 3.988281 -5.945312 3.796875 -5.40625 3.796875 -4.71875 C 3.796875 -4.007812 3.988281 -3.453125 4.375 -3.046875 C 4.757812 -2.648438 5.25 -2.453125 5.84375 -2.453125 C 6.65625 -2.453125 7.28125 -2.875 7.71875 -3.71875 L 10.265625 -2.421875 C 9.929688 -1.617188 9.378906 -0.988281 8.609375 -0.53125 C 7.835938 -0.0703125 6.921875 0.15625 5.859375 0.15625 Z M 5.859375 0.15625 "/></g></g></g><g fill="#000000" fill-opacity="1"><g transform="translate(83.273161, 23.460235)"><g><path d="M 7.171875 -9.546875 C 8.335938 -9.546875 9.273438 -9.195312 9.984375 -8.5 C 10.703125 -7.8125 11.0625 -6.769531 11.0625 -5.375 L 11.0625 0 L 7.765625 0 L 7.765625 -4.828125 C 7.765625 -6.117188 7.25 -6.765625 6.21875 -6.765625 C 5.65625 -6.765625 5.203125 -6.578125 4.859375 -6.203125 C 4.515625 -5.835938 4.34375 -5.285156 4.34375 -4.546875 L 4.34375 0 L 1.0625 0 L 1.0625 -12.859375 L 4.34375 -12.859375 L 4.34375 -8.53125 C 4.707031 -8.863281 5.128906 -9.113281 5.609375 -9.28125 C 6.097656 -9.457031 6.617188 -9.546875 7.171875 -9.546875 Z M 7.171875 -9.546875 "/></g></g></g><g fill="#000000" fill-opacity="1"><g transform="translate(93.560003, 23.460235)"><g><path d="M 13.296875 -9.546875 C 14.441406 -9.546875 15.359375 -9.195312 16.046875 -8.5 C 16.734375 -7.8125 17.078125 -6.769531 17.078125 -5.375 L 17.078125 0 L 13.796875 0 L 13.796875 -4.828125 C 13.796875 -5.492188 13.671875 -5.984375 13.421875 -6.296875 C 13.171875 -6.609375 12.820312 -6.765625 12.375 -6.765625 C 11.875 -6.765625 11.472656 -6.585938 11.171875 -6.234375 C 10.867188 -5.890625 10.71875 -5.363281 10.71875 -4.65625 L 10.71875 0 L 7.4375 0 L 7.4375 -4.828125 C 7.4375 -6.117188 6.960938 -6.765625 6.015625 -6.765625 C 5.503906 -6.765625 5.097656 -6.585938 4.796875 -6.234375 C 4.492188 -5.890625 4.34375 -5.363281 4.34375 -4.65625 L 4.34375 0 L 1.0625 0 L 1.0625 -9.390625 L 4.1875 -9.390625 L 4.1875 -8.40625 C 4.539062 -8.78125 4.957031 -9.0625 5.4375 -9.25 C 5.914062 -9.445312 6.4375 -9.546875 7 -9.546875 C 7.65625 -9.546875 8.242188 -9.421875 8.765625 -9.171875 C 9.285156 -8.929688 9.707031 -8.566406 10.03125 -8.078125 C 10.40625 -8.546875 10.875 -8.90625 11.4375 -9.15625 C 12 -9.414062 12.617188 -9.546875 13.296875 -9.546875 Z M 13.296875 -9.546875 "/></g></g></g><g fill="#000000" fill-opacity="1"><g transform="translate(109.891235, 23.460235)"><g><path d="M 5.0625 -9.546875 C 6.625 -9.546875 7.8125 -9.191406 8.625 -8.484375 C 9.445312 -7.773438 9.859375 -6.6875 9.859375 -5.21875 L 9.859375 0 L 6.796875 0 L 6.796875 -1.21875 C 6.316406 -0.300781 5.390625 0.15625 4.015625 0.15625 C 3.285156 0.15625 2.65625 0.03125 2.125 -0.21875 C 1.59375 -0.476562 1.191406 -0.820312 0.921875 -1.25 C 0.648438 -1.6875 0.515625 -2.179688 0.515625 -2.734375 C 0.515625 -3.628906 0.851562 -4.320312 1.53125 -4.8125 C 2.21875 -5.300781 3.273438 -5.546875 4.703125 -5.546875 L 6.5625 -5.546875 C 6.507812 -6.535156 5.847656 -7.03125 4.578125 -7.03125 C 4.128906 -7.03125 3.671875 -6.957031 3.203125 -6.8125 C 2.742188 -6.675781 2.351562 -6.476562 2.03125 -6.21875 L 0.921875 -8.453125 C 1.441406 -8.796875 2.070312 -9.0625 2.8125 -9.25 C 3.5625 -9.445312 4.3125 -9.546875 5.0625 -9.546875 Z M 4.9375 -1.921875 C 5.320312 -1.921875 5.65625 -2.015625 5.9375 -2.203125 C 6.226562 -2.390625 6.4375 -2.660156 6.5625 -3.015625 L 6.5625 -3.828125 L 5.140625 -3.828125 C 4.179688 -3.828125 3.703125 -3.507812 3.703125 -2.875 C 3.703125 -2.582031 3.8125 -2.347656 4.03125 -2.171875 C 4.25 -2.003906 4.550781 -1.921875 4.9375 -1.921875 Z M 4.9375 -1.921875 "/></g></g></g><g fill="#000000" fill-opacity="1"><g transform="translate(119.000382, 23.460235)"><g><path d="M 4.1875 -8.265625 C 4.53125 -8.691406 4.96875 -9.007812 5.5 -9.21875 C 6.039062 -9.4375 6.65625 -9.546875 7.34375 -9.546875 L 7.34375 -6.578125 C 7.039062 -6.617188 6.796875 -6.640625 6.609375 -6.640625 C 5.898438 -6.640625 5.34375 -6.445312 4.9375 -6.0625 C 4.539062 -5.6875 4.34375 -5.101562 4.34375 -4.3125 L 4.34375 0 L 1.0625 0 L 1.0625 -9.390625 L 4.1875 -9.390625 Z M 4.1875 -8.265625 "/></g></g></g><g fill="#000000" fill-opacity="1"><g transform="translate(124.905487, 23.460235)"><g><path d="M 5.3125 -3.296875 L 4.34375 -2.296875 L 4.34375 0 L 1.0625 0 L 1.0625 -12.859375 L 4.34375 -12.859375 L 4.34375 -6.109375 L 7.71875 -9.390625 L 11.609375 -9.390625 L 7.71875 -5.375 L 11.9375 0 L 7.953125 0 Z M 5.3125 -3.296875 "/></g></g></g></svg>